<svg  xmlns="http://www.w3.org/2000/svg">
<path d="M19 20C19 19.4477 19.4477 19 20 19C20.5523 19 21 19.4477 21 20C21 20.5523 20.5523 21 20 21C19.4477 21 19 20.5523 19 20Z" stroke="black" stroke-width="2" stroke-linecap="round" stroke-linejoin="round"/>
<path d="M19 13C19 12.4477 19.4477 12 20 12C20.5523 12 21 12.4477 21 13C21 13.5523 20.5523 14 20 14C19.4477 14 19 13.5523 19 13Z" stroke="black" stroke-width="2" stroke-linecap="round" stroke-linejoin="round"/>
<path d="M19 27C19 26.4477 19.4477 26 20 26C20.5523 26 21 26.4477 21 27C21 27.5523 20.5523 28 20 28C19.4477 28 19 27.5523 19 27Z" stroke="black" stroke-width="2" stroke-linecap="round" stroke-linejoin="round"/>
<circle cx="20" cy="20" r="20" fill="#6219F5" fill-opacity="0.05"/>
</svg>
