<svg width="24" height="24" viewBox="0 0 25 24" fill="none" xmlns="http://www.w3.org/2000/svg">
<g id="beaker-02">
<path id="Icon" d="M9.54001 6V10.5012C9.54001 11.0521 9.54001 11.3276 9.47133 11.5829C9.41048 11.809 9.31038 12.0228 9.17558 12.2143C9.02345 12.4305 8.81183 12.6068 8.3886 12.9595L4.69142 16.0405C4.26818 16.3932 4.05657 16.5695 3.90443 16.7857C3.76964 16.9772 3.66953 17.191 3.60868 17.4171C3.54001 17.6724 3.54001 17.9479 3.54001 18.4988V18.8C3.54001 19.9201 3.54001 20.4802 3.758 20.908C3.94974 21.2843 4.2557 21.5903 4.63203 21.782C5.05985 22 5.6199 22 6.74001 22H18.34C19.4601 22 20.0202 22 20.448 21.782C20.8243 21.5903 21.1303 21.2843 21.322 20.908C21.54 20.4802 21.54 19.9201 21.54 18.8V18.4988C21.54 17.9479 21.54 17.6724 21.4713 17.4171C21.4105 17.191 21.3104 16.9772 21.1756 16.7857C21.0234 16.5695 20.8118 16.3932 20.3886 16.0405L16.6914 12.9595C16.2682 12.6068 16.0566 12.4305 15.9044 12.2143C15.7696 12.0228 15.6695 11.809 15.6087 11.5829C15.54 11.3276 15.54 11.0521 15.54 10.5012V6M8.84001 6H16.24C16.52 6 16.66 6 16.767 5.9455C16.8611 5.89757 16.9376 5.82108 16.9855 5.727C17.04 5.62004 17.04 5.48003 17.04 5.2V2.8C17.04 2.51997 17.04 2.37996 16.9855 2.273C16.9376 2.17892 16.8611 2.10243 16.767 2.0545C16.66 2 16.52 2 16.24 2H8.84001C8.55998 2 8.41997 2 8.31301 2.0545C8.21893 2.10243 8.14244 2.17892 8.09451 2.273C8.04001 2.37996 8.04001 2.51997 8.04001 2.8V5.2C8.04001 5.48003 8.04001 5.62004 8.09451 5.727C8.14244 5.82108 8.21893 5.89757 8.31301 5.9455C8.41997 6 8.55998 6 8.84001 6ZM6.04001 17H19.04C19.5047 17 19.737 17 19.9302 17.0384C20.7236 17.1962 21.3438 17.8164 21.5016 18.6098C21.54 18.803 21.54 19.0353 21.54 19.5C21.54 19.9647 21.54 20.197 21.5016 20.3902C21.3438 21.1836 20.7236 21.8038 19.9302 21.9616C19.737 22 19.5047 22 19.04 22H6.04001C5.57535 22 5.34303 22 5.14983 21.9616C4.35645 21.8038 3.73625 21.1836 3.57844 20.3902C3.54001 20.197 3.54001 19.9647 3.54001 19.5C3.54001 19.0353 3.54001 18.803 3.57844 18.6098C3.73625 17.8164 4.35645 17.1962 5.14983 17.0384C5.34303 17 5.57535 17 6.04001 17Z" stroke="url(#paint0_linear_1060_6094)" stroke-width="2" stroke-linecap="round" stroke-linejoin="round"/>
</g>
<defs>
<linearGradient id="paint0_linear_1060_6094" x1="3.54001" y1="22" x2="21.54" y2="22" gradientUnits="userSpaceOnUse">
<stop stop-color="#6219F5"/>
<stop offset="1" stop-color="#9979E9"/>
</linearGradient>
</defs>
</svg>
