<svg viewBox="0 0 20 20" fill="none" xmlns="http://www.w3.org/2000/svg">
<g id="clipboard">
<path id="Icon" d="M13.334 3.33366C14.109 3.33366 14.4964 3.33366 14.8144 3.41884C15.6771 3.65001 16.351 4.32388 16.5821 5.18661C16.6673 5.50453 16.6673 5.89202 16.6673 6.66699V14.3337C16.6673 15.7338 16.6673 16.4339 16.3948 16.9686C16.1552 17.439 15.7727 17.8215 15.3023 18.0612C14.7675 18.3337 14.0674 18.3337 12.6673 18.3337H7.33398C5.93385 18.3337 5.23379 18.3337 4.69901 18.0612C4.2286 17.8215 3.84615 17.439 3.60647 16.9686C3.33398 16.4339 3.33398 15.7338 3.33398 14.3337V6.66699C3.33398 5.89202 3.33398 5.50453 3.41917 5.18661C3.65034 4.32388 4.32421 3.65001 5.18694 3.41884C5.50485 3.33366 5.89234 3.33366 6.66732 3.33366M8.00065 5.00033H12.0007C12.4674 5.00033 12.7007 5.00033 12.879 4.9095C13.0358 4.8296 13.1633 4.70212 13.2432 4.54532C13.334 4.36706 13.334 4.1337 13.334 3.66699V3.00033C13.334 2.53362 13.334 2.30026 13.2432 2.122C13.1633 1.9652 13.0358 1.83771 12.879 1.75782C12.7007 1.66699 12.4674 1.66699 12.0007 1.66699H8.00065C7.53394 1.66699 7.30059 1.66699 7.12233 1.75782C6.96552 1.83771 6.83804 1.9652 6.75815 2.122C6.66732 2.30026 6.66732 2.53362 6.66732 3.00033V3.66699C6.66732 4.1337 6.66732 4.36706 6.75815 4.54532C6.83804 4.70212 6.96552 4.8296 7.12233 4.9095C7.30059 5.00033 7.53394 5.00033 8.00065 5.00033Z" stroke="#6219F5" stroke-width="2" stroke-linecap="round" stroke-linejoin="round"/>
</g>
</svg>
