<svg viewBox="0 0 20 20" fill="none" xmlns="http://www.w3.org/2000/svg">
<g id="data" clip-path="url(#clip0_1653_25206)">
<g id="Icon">
<path d="M17.666 18.3337C17.8994 18.3337 18.016 18.3337 18.1052 18.2882C18.1836 18.2483 18.2473 18.1846 18.2873 18.1062C18.3327 18.017 18.3327 17.9003 18.3327 17.667V9.00033C18.3327 8.76697 18.3327 8.65029 18.2873 8.56116C18.2473 8.48276 18.1836 8.41902 18.1052 8.37907C18.016 8.33366 17.8994 8.33366 17.666 8.33366L15.666 8.33366C15.4327 8.33366 15.316 8.33366 15.2269 8.37907C15.1484 8.41902 15.0847 8.48276 15.0448 8.56116C14.9993 8.65029 14.9993 8.76697 14.9993 9.00033V11.0003C14.9993 11.2337 14.9993 11.3504 14.9539 11.4395C14.914 11.5179 14.8502 11.5816 14.7718 11.6216C14.6827 11.667 14.566 11.667 14.3327 11.667H12.3327C12.0993 11.667 11.9826 11.667 11.8935 11.7124C11.8151 11.7524 11.7514 11.8161 11.7114 11.8945C11.666 11.9836 11.666 12.1003 11.666 12.3337V14.3337C11.666 14.567 11.666 14.6837 11.6206 14.7728C11.5807 14.8512 11.5169 14.915 11.4385 14.9549C11.3494 15.0003 11.2327 15.0003 10.9993 15.0003H8.99935C8.76599 15.0003 8.64931 15.0003 8.56018 15.0457C8.48178 15.0857 8.41804 15.1494 8.3781 15.2278C8.33268 15.317 8.33268 15.4336 8.33268 15.667V17.667C8.33268 17.9003 8.33268 18.017 8.3781 18.1062C8.41804 18.1846 8.48178 18.2483 8.56018 18.2882C8.64931 18.3337 8.76599 18.3337 8.99935 18.3337L17.666 18.3337Z" stroke="#6219F5" stroke-width="2" stroke-linecap="round" stroke-linejoin="round"/>
<path d="M8.33268 5.66699C8.33268 5.43364 8.33268 5.31696 8.3781 5.22783C8.41804 5.14943 8.48178 5.08569 8.56018 5.04574C8.64931 5.00032 8.76599 5.00032 8.99935 5.00032H10.9993C11.2327 5.00032 11.3494 5.00032 11.4385 5.04574C11.5169 5.08569 11.5807 5.14943 11.6206 5.22783C11.666 5.31696 11.666 5.43364 11.666 5.66699V7.66699C11.666 7.90035 11.666 8.01702 11.6206 8.10615C11.5807 8.18455 11.5169 8.2483 11.4385 8.28824C11.3494 8.33366 11.2327 8.33366 10.9993 8.33366H8.99935C8.76599 8.33366 8.64931 8.33366 8.56018 8.28824C8.48178 8.2483 8.41804 8.18455 8.3781 8.10615C8.33268 8.01702 8.33268 7.90035 8.33268 7.66699V5.66699Z" stroke="#6219F5" stroke-width="2" stroke-linecap="round" stroke-linejoin="round"/>
<path d="M2.49935 10.667C2.49935 10.4336 2.49935 10.317 2.54476 10.2278C2.58471 10.1494 2.64845 10.0857 2.72685 10.0457C2.81598 10.0003 2.93266 10.0003 3.16602 10.0003H5.16601C5.39937 10.0003 5.51605 10.0003 5.60518 10.0457C5.68358 10.0857 5.74732 10.1494 5.78727 10.2278C5.83268 10.317 5.83268 10.4336 5.83268 10.667V12.667C5.83268 12.9003 5.83268 13.017 5.78727 13.1062C5.74732 13.1846 5.68358 13.2483 5.60518 13.2882C5.51605 13.3337 5.39937 13.3337 5.16601 13.3337H3.16602C2.93266 13.3337 2.81598 13.3337 2.72685 13.2882C2.64845 13.2483 2.58471 13.1846 2.54476 13.1062C2.49935 13.017 2.49935 12.9003 2.49935 12.667V10.667Z" stroke="#6219F5" stroke-width="2" stroke-linecap="round" stroke-linejoin="round"/>
<path d="M1.66602 2.33366C1.66602 2.1003 1.66602 1.98363 1.71143 1.8945C1.75138 1.8161 1.81512 1.75235 1.89352 1.71241C1.98265 1.66699 2.09933 1.66699 2.33268 1.66699H4.33268C4.56604 1.66699 4.68271 1.66699 4.77184 1.71241C4.85025 1.75235 4.91399 1.8161 4.95393 1.8945C4.99935 1.98363 4.99935 2.1003 4.99935 2.33366V4.33366C4.99935 4.56701 4.99935 4.68369 4.95393 4.77282C4.91399 4.85122 4.85025 4.91496 4.77184 4.95491C4.68271 5.00032 4.56604 5.00032 4.33268 5.00032H2.33268C2.09933 5.00032 1.98265 5.00032 1.89352 4.95491C1.81512 4.91496 1.75138 4.85122 1.71143 4.77282C1.66602 4.68369 1.66602 4.56701 1.66602 4.33366V2.33366Z" stroke="#6219F5" stroke-width="2" stroke-linecap="round" stroke-linejoin="round"/>
</g>
</g>
<defs>
<clipPath id="clip0_1653_25206">
<rect width="20" height="20" fill="white"/>
</clipPath>
</defs>
</svg>
