<svg viewBox="0 0 25 24" fill="none" xmlns="http://www.w3.org/2000/svg">
  <g id="file-02">
    <path id="Icon" d="M14.2383 11H8.23828M10.2383 15H8.23828M16.2383 7H8.23828M20.2383 6.8V17.2C20.2383 18.8802 20.2383 19.7202 19.9113 20.362C19.6237 20.9265 19.1647 21.3854 18.6003 21.673C17.9585 22 17.1184 22 15.4383 22H9.03828C7.35812 22 6.51805 22 5.87631 21.673C5.31182 21.3854 4.85288 20.9265 4.56526 20.362C4.23828 19.7202 4.23828 18.8802 4.23828 17.2V6.8C4.23828 5.11984 4.23828 4.27976 4.56526 3.63803C4.85288 3.07354 5.31182 2.6146 5.87631 2.32698C6.51805 2 7.35812 2 9.03828 2H15.4383C17.1184 2 17.9585 2 18.6003 2.32698C19.1647 2.6146 19.6237 3.07354 19.9113 3.63803C20.2383 4.27976 20.2383 5.11984 20.2383 6.8Z" stroke="#A8A8A8" stroke-width="2" stroke-linecap="round" stroke-linejoin="round"/>
  </g>
</svg>
