<svg width="33" height="33" viewBox="0 0 33 33" fill="none" xmlns="http://www.w3.org/2000/svg">
<g id="lock">
<g id="Vector 1" filter="url(#filter0_di_1074_6497)">
<path d="M9.82031 13.3828V10.2656C9.82031 6.57654 12.8109 3.58594 16.5 3.58594V3.58594C20.1891 3.58594 23.1797 6.57654 23.1797 10.2656V13.3828" stroke="white" stroke-width="1.78125"/>
</g>
<path id="Subtract" fill-rule="evenodd" clip-rule="evenodd" d="M7.59375 12.9375C6.60999 12.9375 5.8125 13.735 5.8125 14.7187V27.1875C5.8125 28.1713 6.60999 28.9688 7.59375 28.9688H25.4062C26.39 28.9688 27.1875 28.1713 27.1875 27.1875V14.7188C27.1875 13.735 26.39 12.9375 25.4062 12.9375H7.59375ZM16.5 22.7344C17.4838 22.7344 18.2812 21.9369 18.2812 20.9531C18.2812 19.9694 17.4838 19.1719 16.5 19.1719C15.5162 19.1719 14.7188 19.9694 14.7188 20.9531C14.7188 21.9369 15.5162 22.7344 16.5 22.7344Z" fill="white"/>
</g>
<defs>
<filter id="filter0_di_1074_6497" x="7.59375" y="1.80469" width="17.8125" height="13.3594" filterUnits="userSpaceOnUse" color-interpolation-filters="sRGB">
<feFlood flood-opacity="0" result="BackgroundImageFix"/>
<feColorMatrix in="SourceAlpha" type="matrix" values="0 0 0 0 0 0 0 0 0 0 0 0 0 0 0 0 0 0 127 0" result="hardAlpha"/>
<feOffset dy="0.445313"/>
<feGaussianBlur stdDeviation="0.667969"/>
<feComposite in2="hardAlpha" operator="out"/>
<feColorMatrix type="matrix" values="0 0 0 0 0.749542 0 0 0 0 0.560141 0 0 0 0 0.19248 0 0 0 0.5 0"/>
<feBlend mode="normal" in2="BackgroundImageFix" result="effect1_dropShadow_1074_6497"/>
<feBlend mode="normal" in="SourceGraphic" in2="effect1_dropShadow_1074_6497" result="shape"/>
<feColorMatrix in="SourceAlpha" type="matrix" values="0 0 0 0 0 0 0 0 0 0 0 0 0 0 0 0 0 0 127 0" result="hardAlpha"/>
<feOffset dy="0.445313"/>
<feComposite in2="hardAlpha" operator="arithmetic" k2="-1" k3="1"/>
<feColorMatrix type="matrix" values="0 0 0 0 1 0 0 0 0 1 0 0 0 0 1 0 0 0 1 0"/>
<feBlend mode="normal" in2="shape" result="effect2_innerShadow_1074_6497"/>
</filter>
</defs>
</svg>
