<svg width="24" height="24" viewBox="0 0 25 24" fill="none" xmlns="http://www.w3.org/2000/svg">
<g id="microscope">
<path id="Icon" d="M3.27 22H12.27M11.27 6.25204C11.9092 6.08751 12.5794 6 13.27 6C17.6883 6 21.27 9.58172 21.27 14C21.27 17.3574 19.2018 20.2317 16.27 21.4185M5.77 13H9.77C10.2347 13 10.467 13 10.6602 13.0384C11.4536 13.1962 12.0738 13.8164 12.2316 14.6098C12.27 14.803 12.27 15.0353 12.27 15.5C12.27 15.9647 12.27 16.197 12.2316 16.3902C12.0738 17.1836 11.4536 17.8038 10.6602 17.9616C10.467 18 10.2347 18 9.77 18H5.77C5.30535 18 5.07302 18 4.87982 17.9616C4.08644 17.8038 3.46625 17.1836 3.30843 16.3902C3.27 16.197 3.27 15.9647 3.27 15.5C3.27 15.0353 3.27 14.803 3.30843 14.6098C3.46625 13.8164 4.08644 13.1962 4.87982 13.0384C5.07302 13 5.30535 13 5.77 13ZM4.27 5.5V13H11.27V5.5C11.27 3.567 9.703 2 7.77 2C5.83701 2 4.27 3.567 4.27 5.5Z" stroke="#6219F5" stroke-width="2" stroke-linecap="round" stroke-linejoin="round"/>
</g>
</svg>
