<svg width="24" height="24" viewBox="0 0 25 24" fill="none" xmlns="http://www.w3.org/2000/svg">
<g id="percent-02">
<path id="Icon" d="M19.8101 5L5.81006 19M9.81006 7C9.81006 8.10457 8.91463 9 7.81006 9C6.70549 9 5.81006 8.10457 5.81006 7C5.81006 5.89543 6.70549 5 7.81006 5C8.91463 5 9.81006 5.89543 9.81006 7ZM19.8101 17C19.8101 18.1046 18.9146 19 17.8101 19C16.7055 19 15.8101 18.1046 15.8101 17C15.8101 15.8954 16.7055 15 17.8101 15C18.9146 15 19.8101 15.8954 19.8101 17Z" stroke="url(#paint0_linear_1060_6101)" stroke-width="2" stroke-linecap="round" stroke-linejoin="round"/>
</g>
<defs>
<linearGradient id="paint0_linear_1060_6101" x1="5.81006" y1="19" x2="19.8101" y2="19" gradientUnits="userSpaceOnUse">
<stop stop-color="#6219F5"/>
<stop offset="1" stop-color="#9979E9"/>
</linearGradient>
</defs>
</svg>
