<?xml version="1.0" standalone="no"?>
<!DOCTYPE svg PUBLIC "-//W3C//DTD SVG 20010904//EN"
 "http://www.w3.org/TR/2001/REC-SVG-20010904/DTD/svg10.dtd">
<svg version="1.0" xmlns="http://www.w3.org/2000/svg"
 width="300.000000pt" height="195.000000pt" viewBox="0 0 300.000000 195.000000"
 preserveAspectRatio="xMidYMid meet">
<metadata>
Created by potrace 1.10, written by Peter Selinger 2001-2011
</metadata>
<g transform="translate(0.000000,195.000000) scale(0.100000,-0.100000)"
fill="#000000" stroke="none">
<path d="M958 1797 c16 -48 26 -105 30 -170 l5 -98 91 -92 c75 -75 100 -108
134 -178 24 -48 46 -103 49 -123 10 -63 20 -49 28 38 19 228 -75 449 -260 612
-106 94 -105 94 -77 11z m122 -104 c23 -27 47 -58 53 -70 6 -13 13 -23 17 -23
14 0 80 -150 96 -216 24 -106 16 -120 -30 -50 -21 32 -70 90 -108 130 -39 39
-74 83 -79 99 -6 22 -13 138 -10 170 2 17 22 4 61 -40z"/>
<path d="M618 1614 c42 -33 106 -124 173 -248 60 -111 131 -195 193 -230 45
-26 266 -100 274 -92 3 3 -3 34 -13 68 -68 245 -265 430 -536 503 -119 32
-132 31 -91 -1z m202 -72 c174 -75 318 -220 374 -378 23 -67 10 -75 -73 -48
-93 30 -118 44 -179 99 -47 43 -71 78 -169 255 -14 25 -31 52 -38 60 -40 50
-12 53 85 12z"/>
<path d="M1459 1290 c-36 -19 -98 -82 -119 -119 -9 -18 -8 -21 12 -21 27 0 56
18 114 71 52 46 101 56 181 36 32 -9 67 -19 78 -23 42 -16 -9 29 -60 52 -63
30 -154 32 -206 4z"/>
<path d="M1577 1213 c-13 -12 -7 -44 9 -50 23 -9 48 25 33 44 -12 14 -32 17
-42 6z"/>
<path d="M1820 1210 c-83 -15 -160 -51 -246 -117 -119 -90 -159 -107 -248
-100 -39 3 -116 19 -171 36 -259 82 -529 86 -690 10 -66 -31 -50 -33 25 -3
114 47 272 43 395 -9 28 -11 83 -41 123 -65 152 -91 238 -114 335 -92 79 19
139 53 219 126 134 121 249 175 418 196 90 12 93 13 50 19 -58 10 -153 9 -210
-1z m-760 -186 c30 -7 91 -25 135 -39 86 -27 173 -32 238 -14 57 15 66 6 21
-22 -122 -76 -267 -67 -402 24 -24 16 -62 40 -85 53 l-42 25 40 -7 c22 -3 65
-12 95 -20z"/>
<path d="M550 1016 c-36 -13 -90 -33 -120 -46 -43 -17 -67 -21 -109 -17 -50 5
-52 5 -32 -9 53 -38 117 -57 186 -57 85 0 130 13 218 65 42 25 85 42 113 46
55 6 47 16 -24 31 -83 17 -160 13 -232 -13z m154 -2 c14 -5 13 -9 -5 -25 -63
-55 -190 -90 -254 -70 -30 9 -29 9 46 44 41 20 98 40 125 45 65 13 70 13 88 6z"/>
<path d="M823 969 c-22 -4 -81 -28 -130 -54 -58 -31 -111 -50 -158 -58 -39 -7
-90 -24 -115 -39 -25 -15 -58 -32 -75 -39 l-30 -12 25 -7 c42 -13 142 -10 210
5 36 9 116 41 177 72 105 52 116 55 170 51 43 -3 73 -13 119 -40 89 -52 124
-61 223 -56 70 3 99 10 151 35 36 16 76 40 90 52 20 17 10 14 -45 -12 -63 -29
-79 -32 -161 -32 -98 0 -76 -8 -289 102 -69 36 -104 43 -162 32z m155 -56 c29
-14 51 -27 49 -30 -3 -2 -17 3 -31 13 -16 10 -55 19 -95 22 -67 4 -70 3 -192
-56 -127 -61 -152 -70 -226 -79 -91 -11 -22 39 72 52 28 4 93 28 145 53 142
68 178 71 278 25z"/>
<path d="M809 713 c-1 -2 -1 -15 -2 -30 -1 -26 1 -28 36 -25 l37 4 0 -146 0
-146 35 0 35 0 0 146 0 146 35 -4 c33 -4 35 -2 35 27 l0 30 -105 0 c-58 0
-105 -1 -106 -2z"/>
<path d="M1600 545 l0 -175 30 0 c30 0 30 1 30 55 0 30 4 55 8 55 4 0 16 -25
27 -55 17 -52 20 -55 51 -55 37 0 38 -5 -5 94 l-21 49 30 53 30 54 -34 0 c-31
0 -36 -4 -53 -45 -10 -25 -21 -45 -25 -45 -5 0 -8 43 -8 95 l0 95 -30 0 -30 0
0 -175z"/>
<path d="M1030 495 l0 -125 36 0 37 0 -6 96 -6 96 35 -5 c33 -6 34 -5 34 29 0
29 -3 34 -23 34 -13 0 -29 -6 -36 -12 -11 -10 -14 -10 -18 0 -3 6 -16 12 -29
12 l-24 0 0 -125z"/>
<path d="M1190 596 c0 -23 4 -25 53 -28 44 -3 52 -6 55 -24 3 -20 0 -21 -41
-17 -39 5 -46 2 -65 -22 -26 -33 -28 -65 -7 -105 13 -25 22 -30 53 -30 21 0
43 5 50 12 9 9 12 9 12 0 0 -7 13 -12 30 -12 l30 0 0 99 c0 84 -3 102 -21 125
-18 23 -27 26 -85 26 -61 0 -64 -1 -64 -24z m110 -147 c0 -28 -2 -30 -32 -27
-27 2 -33 7 -33 28 0 17 7 26 25 30 34 9 40 4 40 -31z"/>
<path d="M1438 603 c-46 -53 -52 -139 -15 -194 21 -31 27 -34 80 -37 55 -3 57
-2 57 23 0 23 -4 25 -40 25 -37 0 -40 2 -50 41 -8 29 -8 49 0 75 11 31 15 34
51 34 35 0 39 3 39 25 0 24 -3 25 -53 25 -39 0 -58 -5 -69 -17z"/>
<path d="M1802 522 c3 -73 8 -106 22 -126 16 -26 21 -27 64 -22 50 6 51 6 127
3 48 -2 51 -1 67 33 13 25 18 59 18 123 l0 87 -33 0 -33 0 4 -62 c5 -84 -8
-132 -36 -136 -21 -3 -22 -1 -22 97 l0 101 -30 0 -30 0 0 -101 c0 -98 0 -100
-22 -97 -22 3 -23 8 -26 101 l-3 97 -36 0 -35 0 4 -98z"/>
<path d="M2150 595 c0 -23 3 -25 49 -25 35 0 51 -4 55 -16 11 -29 6 -32 -40
-26 -41 4 -49 2 -65 -19 -23 -29 -24 -87 -3 -117 17 -24 61 -30 95 -12 13 7
19 7 19 0 0 -5 14 -10 31 -10 l31 0 -4 104 c-5 134 -13 146 -105 146 -61 0
-63 -1 -63 -25z m108 -143 c3 -31 2 -32 -32 -32 -33 0 -36 3 -36 28 0 36 2 38
37 37 24 -1 28 -6 31 -33z"/>
<path d="M2362 530 c4 -96 27 -148 62 -142 19 3 22 -23 4 -34 -7 -5 -25 -7
-40 -6 -25 2 -28 -1 -28 -27 0 -28 1 -29 43 -24 62 7 62 6 103 75 36 58 39 70
44 156 l5 92 -32 0 -33 0 0 -76 c0 -79 -11 -114 -35 -114 -21 0 -38 76 -32
138 l6 52 -36 0 -35 0 4 -90z"/>
</g>
</svg>
